<svg xmlns="http://www.w3.org/2000/svg" xmlns:xlink="http://www.w3.org/1999/xlink" width="500" zoomAndPan="magnify" viewBox="0 0 375 374.999991" height="500" preserveAspectRatio="xMidYMid meet" version="1.0"><defs><g/><clipPath id="f540e6f97d"><path d="M 51.070312 11.933594 L 323.929688 11.933594 L 323.929688 289.0625 L 51.070312 289.0625 Z M 51.070312 11.933594 " clip-rule="nonzero"/></clipPath><clipPath id="710ca8f739"><path d="M 187.5 11.933594 C 112.152344 11.933594 51.070312 73.96875 51.070312 150.488281 C 51.070312 227.011719 112.152344 289.042969 187.5 289.042969 C 262.847656 289.042969 323.929688 227.011719 323.929688 150.488281 C 323.929688 73.96875 262.847656 11.933594 187.5 11.933594 Z M 187.5 11.933594 " clip-rule="nonzero"/></clipPath><clipPath id="4ce61f02d1"><path d="M 0.0703125 0.933594 L 272.929688 0.933594 L 272.929688 278.0625 L 0.0703125 278.0625 Z M 0.0703125 0.933594 " clip-rule="nonzero"/></clipPath><clipPath id="cf49de968b"><path d="M 136.5 0.933594 C 61.152344 0.933594 0.0703125 62.96875 0.0703125 139.488281 C 0.0703125 216.011719 61.152344 278.042969 136.5 278.042969 C 211.847656 278.042969 272.929688 216.011719 272.929688 139.488281 C 272.929688 62.96875 211.847656 0.933594 136.5 0.933594 Z M 136.5 0.933594 " clip-rule="nonzero"/></clipPath><clipPath id="47785f043c"><rect x="0" width="273" y="0" height="279"/></clipPath><clipPath id="f99a4894b8"><path d="M 51.070312 11.9375 L 323.925781 11.9375 L 323.925781 289.03125 L 51.070312 289.03125 Z M 51.070312 11.9375 " clip-rule="nonzero"/></clipPath><clipPath id="893bc9b93a"><path d="M 187.496094 11.9375 C 112.148438 11.9375 51.070312 73.96875 51.070312 150.488281 C 51.070312 227.007812 112.148438 289.039062 187.496094 289.039062 C 262.84375 289.039062 323.925781 227.007812 323.925781 150.488281 C 323.925781 73.96875 262.84375 11.9375 187.496094 11.9375 Z M 187.496094 11.9375 " clip-rule="nonzero"/></clipPath><clipPath id="63721f578e"><path d="M 61.671875 24.660156 L 313.367188 24.660156 L 313.367188 276.355469 L 61.671875 276.355469 Z M 61.671875 24.660156 " clip-rule="nonzero"/></clipPath><clipPath id="f1dad803ca"><rect x="0" width="375" y="0" height="371"/></clipPath></defs><g transform="matrix(1, 0, 0, 1, 0, 0)"><g clip-path="url(#f1dad803ca)"><g clip-path="url(#f540e6f97d)"><g clip-path="url(#710ca8f739)"><g transform="matrix(1, 0, 0, 1, 51, 11)"><g clip-path="url(#47785f043c)"><g clip-path="url(#4ce61f02d1)"><g clip-path="url(#cf49de968b)"><path fill="#ffffff" d="M 0.0703125 0.933594 L 272.929688 0.933594 L 272.929688 278.0625 L 0.0703125 278.0625 Z M 0.0703125 0.933594 " fill-opacity="1" fill-rule="nonzero"/></g></g></g></g></g></g><g clip-path="url(#f99a4894b8)"><g clip-path="url(#893bc9b93a)"><path stroke-linecap="butt" transform="matrix(0.577284, 0, 0, 0.577284, 51.068711, 11.936823)" fill="none" stroke-linejoin="miter" d="M 236.326094 0.00117222 C 105.805249 0.00117222 0.00277463 107.454696 0.00277463 240.005519 C 0.00277463 372.556342 105.805249 480.009866 236.326094 480.009866 C 366.846939 480.009866 472.65618 372.556342 472.65618 240.005519 C 472.65618 107.454696 366.846939 0.00117222 236.326094 0.00117222 Z M 236.326094 0.00117222 " stroke="#ffffff" stroke-width="67.557686" stroke-opacity="1" stroke-miterlimit="4"/></g></g><g clip-path="url(#63721f578e)"><path fill="#96adc5" d="M 241.042969 150.476562 C 241.042969 164.789062 235.445312 178.242188 225.34375 188.363281 C 215.234375 198.496094 201.757812 204.078125 187.4375 204.078125 C 173.117188 204.078125 159.65625 198.503906 149.542969 188.375 C 139.441406 178.257812 133.875 164.804688 133.875 150.492188 C 133.875 136.175781 139.398438 122.71875 149.511719 112.601562 C 154.667969 107.449219 160.703125 103.476562 167.195312 100.816406 L 167.195312 150.496094 C 167.195312 161.613281 176.269531 170.65625 187.367188 170.65625 C 198.460938 170.65625 207.53125 161.847656 207.539062 150.484375 L 207.570312 150.484375 L 207.570312 60.277344 C 201.078125 58.84375 194.425781 58.082031 187.542969 58.082031 C 136.597656 58.082031 95.179688 99.53125 95.179688 150.46875 L 95.179688 235.875 C 85.039062 225.148438 77.308594 212.921875 71.605469 199.453125 C 65.046875 183.929688 61.695312 167.449219 61.695312 150.476562 C 61.695312 133.5 65.015625 117.023438 71.582031 101.5 C 77.917969 86.515625 86.980469 73.058594 98.53125 61.511719 C 110.078125 49.964844 123.53125 40.890625 138.515625 34.554688 C 154.039062 27.992188 170.511719 24.660156 187.492188 24.660156 C 194.265625 24.660156 200.960938 25.191406 207.542969 26.246094 C 217.464844 27.832031 227.175781 30.609375 236.503906 34.554688 C 238.023438 35.195312 239.421875 35.867188 241.042969 36.5625 Z M 187.449219 276.285156 C 204.425781 276.285156 220.9375 272.953125 236.464844 266.390625 C 251.445312 260.054688 264.898438 250.984375 276.445312 239.433594 C 287.992188 227.886719 297.058594 214.433594 303.394531 199.449219 C 309.960938 183.925781 313.28125 167.449219 313.28125 150.46875 C 313.28125 133.492188 309.929688 117.015625 303.363281 101.492188 C 297.667969 88.023438 289.9375 75.789062 279.789062 65.070312 L 279.789062 150.46875 C 279.789062 201.414062 238.3125 242.859375 187.371094 242.859375 C 167.398438 242.859375 149.148438 236.484375 133.726562 225.671875 L 133.726562 264.316406 C 135.347656 265.03125 136.871094 265.722656 138.4375 266.386719 C 153.960938 272.953125 170.476562 276.285156 187.449219 276.285156 Z M 187.449219 276.285156 " fill-opacity="1" fill-rule="nonzero"/></g></g></g><g fill="#ffffff" fill-opacity="1"><g transform="translate(43.089549, 336.566637)"><g><path d="M 13.140625 -28.9375 C 16.816406 -28.9375 19.566406 -28.140625 21.390625 -26.546875 C 23.222656 -24.953125 24.140625 -22.679688 24.140625 -19.734375 C 24.140625 -18.421875 23.945312 -17.15625 23.5625 -15.9375 C 23.1875 -14.71875 22.570312 -13.632812 21.71875 -12.6875 C 20.875 -11.738281 19.75 -10.988281 18.34375 -10.4375 C 16.9375 -9.882812 15.203125 -9.609375 13.140625 -9.609375 L 10.953125 -9.609375 L 10.953125 0 L 3.125 0 L 3.125 -28.9375 Z M 12.96875 -22.625 L 10.953125 -22.625 L 10.953125 -15.984375 L 12.5 -15.984375 C 13.164062 -15.984375 13.789062 -16.097656 14.375 -16.328125 C 14.957031 -16.554688 15.421875 -16.929688 15.765625 -17.453125 C 16.117188 -17.972656 16.296875 -18.671875 16.296875 -19.546875 C 16.296875 -20.453125 16.023438 -21.191406 15.484375 -21.765625 C 14.941406 -22.335938 14.101562 -22.625 12.96875 -22.625 Z M 12.96875 -22.625 "/></g></g></g><g fill="#ffffff" fill-opacity="1"><g transform="translate(72.926663, 336.566637)"><g><path d="M 27.9375 0 L 20.078125 0 L 20.078125 -11.796875 L 10.984375 -11.796875 L 10.984375 0 L 3.125 0 L 3.125 -28.9375 L 10.984375 -28.9375 L 10.984375 -18.21875 L 20.078125 -18.21875 L 20.078125 -28.9375 L 27.9375 -28.9375 Z M 27.9375 0 "/></g></g></g><g fill="#ffffff" fill-opacity="1"><g transform="translate(108.208304, 336.566637)"><g><path d="M 20.890625 0 L 19.46875 -5.421875 L 10.0625 -5.421875 L 8.59375 0 L 0 0 L 9.4375 -29.0625 L 19.875 -29.0625 L 29.4375 0 Z M 17.84375 -11.84375 L 16.59375 -16.59375 C 16.457031 -17.101562 16.265625 -17.835938 16.015625 -18.796875 C 15.765625 -19.753906 15.515625 -20.742188 15.265625 -21.765625 C 15.023438 -22.785156 14.835938 -23.628906 14.703125 -24.296875 C 14.585938 -23.628906 14.421875 -22.8125 14.203125 -21.84375 C 13.984375 -20.875 13.757812 -19.914062 13.53125 -18.96875 C 13.300781 -18.019531 13.097656 -17.226562 12.921875 -16.59375 L 11.6875 -11.84375 Z M 17.84375 -11.84375 "/></g></g></g><g fill="#ffffff" fill-opacity="1"><g transform="translate(141.866486, 336.566637)"><g><path d="M 12.609375 -28.9375 C 15.234375 -28.9375 17.414062 -28.617188 19.15625 -27.984375 C 20.90625 -27.347656 22.21875 -26.394531 23.09375 -25.125 C 23.96875 -23.851562 24.40625 -22.273438 24.40625 -20.390625 C 24.40625 -19.210938 24.207031 -18.140625 23.8125 -17.171875 C 23.414062 -16.210938 22.851562 -15.351562 22.125 -14.59375 C 21.394531 -13.84375 20.519531 -13.179688 19.5 -12.609375 L 27.9375 0 L 19.0625 0 L 12.921875 -10.53125 L 10.953125 -10.53125 L 10.953125 0 L 3.125 0 L 3.125 -28.9375 Z M 12.5 -23.03125 L 10.953125 -23.03125 L 10.953125 -16.40625 L 12.40625 -16.40625 C 13.613281 -16.40625 14.597656 -16.671875 15.359375 -17.203125 C 16.128906 -17.734375 16.515625 -18.675781 16.515625 -20.03125 C 16.515625 -20.96875 16.195312 -21.703125 15.5625 -22.234375 C 14.925781 -22.765625 13.90625 -23.03125 12.5 -23.03125 Z M 12.5 -23.03125 "/></g></g></g><g fill="#ffffff" fill-opacity="1"><g transform="translate(173.525043, 336.566637)"><g><path d="M 15.734375 0 L 9.8125 -20.84375 L 9.640625 -20.84375 C 9.691406 -20.300781 9.75 -19.566406 9.8125 -18.640625 C 9.875 -17.722656 9.929688 -16.726562 9.984375 -15.65625 C 10.035156 -14.59375 10.0625 -13.566406 10.0625 -12.578125 L 10.0625 0 L 3.125 0 L 3.125 -28.9375 L 13.546875 -28.9375 L 19.578125 -8.390625 L 19.734375 -8.390625 L 25.65625 -28.9375 L 36.09375 -28.9375 L 36.09375 0 L 28.90625 0 L 28.90625 -12.6875 C 28.90625 -13.601562 28.921875 -14.582031 28.953125 -15.625 C 28.984375 -16.675781 29.019531 -17.664062 29.0625 -18.59375 C 29.113281 -19.53125 29.160156 -20.269531 29.203125 -20.8125 L 29.03125 -20.8125 L 23.1875 0 Z M 15.734375 0 "/></g></g></g><g fill="#ffffff" fill-opacity="1"><g transform="translate(216.943775, 336.566637)"><g><path d="M 20.890625 0 L 19.46875 -5.421875 L 10.0625 -5.421875 L 8.59375 0 L 0 0 L 9.4375 -29.0625 L 19.875 -29.0625 L 29.4375 0 Z M 17.84375 -11.84375 L 16.59375 -16.59375 C 16.457031 -17.101562 16.265625 -17.835938 16.015625 -18.796875 C 15.765625 -19.753906 15.515625 -20.742188 15.265625 -21.765625 C 15.023438 -22.785156 14.835938 -23.628906 14.703125 -24.296875 C 14.585938 -23.628906 14.421875 -22.8125 14.203125 -21.84375 C 13.984375 -20.875 13.757812 -19.914062 13.53125 -18.96875 C 13.300781 -18.019531 13.097656 -17.226562 12.921875 -16.59375 L 11.6875 -11.84375 Z M 17.84375 -11.84375 "/></g></g></g><g fill="#ffffff" fill-opacity="1"><g transform="translate(250.601957, 336.566637)"><g/></g></g><g fill="#ffffff" fill-opacity="1"><g transform="translate(265.352796, 336.566637)"><g><path d="M 14.75 -16.953125 L 27.25 -16.953125 L 27.25 -1.34375 C 25.75 -0.832031 24.035156 -0.414062 22.109375 -0.09375 C 20.179688 0.226562 18.164062 0.390625 16.0625 0.390625 C 13.269531 0.390625 10.820312 -0.144531 8.71875 -1.21875 C 6.625 -2.300781 4.988281 -3.945312 3.8125 -6.15625 C 2.644531 -8.375 2.0625 -11.171875 2.0625 -14.546875 C 2.0625 -17.585938 2.640625 -20.210938 3.796875 -22.421875 C 4.960938 -24.628906 6.675781 -26.335938 8.9375 -27.546875 C 11.195312 -28.753906 13.972656 -29.359375 17.265625 -29.359375 C 19.066406 -29.359375 20.78125 -29.1875 22.40625 -28.84375 C 24.03125 -28.5 25.445312 -28.066406 26.65625 -27.546875 L 24.171875 -21.40625 C 23.128906 -21.914062 22.046875 -22.300781 20.921875 -22.5625 C 19.804688 -22.820312 18.597656 -22.953125 17.296875 -22.953125 C 15.566406 -22.953125 14.175781 -22.5625 13.125 -21.78125 C 12.082031 -21 11.320312 -19.957031 10.84375 -18.65625 C 10.375 -17.351562 10.140625 -15.921875 10.140625 -14.359375 C 10.140625 -12.554688 10.390625 -11.035156 10.890625 -9.796875 C 11.398438 -8.566406 12.144531 -7.628906 13.125 -6.984375 C 14.113281 -6.347656 15.304688 -6.03125 16.703125 -6.03125 C 17.171875 -6.03125 17.738281 -6.0625 18.40625 -6.125 C 19.070312 -6.195312 19.578125 -6.28125 19.921875 -6.375 L 19.921875 -10.90625 L 14.75 -10.90625 Z M 14.75 -16.953125 "/></g></g></g><g fill="#ffffff" fill-opacity="1"><g transform="translate(299.585116, 336.566637)"><g><path d="M 30.21875 -14.515625 C 30.21875 -12.285156 29.945312 -10.253906 29.40625 -8.421875 C 28.875 -6.597656 28.039062 -5.023438 26.90625 -3.703125 C 25.769531 -2.378906 24.3125 -1.363281 22.53125 -0.65625 C 20.75 0.0390625 18.617188 0.390625 16.140625 0.390625 C 13.710938 0.390625 11.609375 0.0390625 9.828125 -0.65625 C 8.054688 -1.363281 6.59375 -2.375 5.4375 -3.6875 C 4.289062 -5 3.441406 -6.570312 2.890625 -8.40625 C 2.335938 -10.25 2.0625 -12.296875 2.0625 -14.546875 C 2.0625 -17.554688 2.554688 -20.171875 3.546875 -22.390625 C 4.546875 -24.617188 6.085938 -26.34375 8.171875 -27.5625 C 10.265625 -28.789062 12.929688 -29.40625 16.171875 -29.40625 C 19.472656 -29.40625 22.15625 -28.789062 24.21875 -27.5625 C 26.289062 -26.332031 27.804688 -24.601562 28.765625 -22.375 C 29.734375 -20.144531 30.21875 -17.523438 30.21875 -14.515625 Z M 10.296875 -14.515625 C 10.296875 -12.773438 10.492188 -11.273438 10.890625 -10.015625 C 11.285156 -8.765625 11.910156 -7.800781 12.765625 -7.125 C 13.628906 -6.457031 14.753906 -6.125 16.140625 -6.125 C 17.578125 -6.125 18.71875 -6.457031 19.5625 -7.125 C 20.414062 -7.800781 21.03125 -8.765625 21.40625 -10.015625 C 21.78125 -11.273438 21.96875 -12.773438 21.96875 -14.515625 C 21.96875 -17.128906 21.53125 -19.191406 20.65625 -20.703125 C 19.789062 -22.222656 18.296875 -22.984375 16.171875 -22.984375 C 14.765625 -22.984375 13.628906 -22.640625 12.765625 -21.953125 C 11.898438 -21.265625 11.269531 -20.285156 10.875 -19.015625 C 10.488281 -17.753906 10.296875 -16.253906 10.296875 -14.515625 Z M 10.296875 -14.515625 "/></g></g></g><g fill="#ffffff" fill-opacity="1"><g transform="translate(46.568674, 352.296627)"><g><path d="M 2.90625 0 L 1.09375 0 L 1.09375 -8.671875 L 6.0625 -8.671875 L 6.0625 -7.15625 L 2.90625 -7.15625 L 2.90625 -4.921875 L 5.84375 -4.921875 L 5.84375 -3.421875 L 2.90625 -3.421875 Z M 2.90625 0 "/></g></g></g><g fill="#ffffff" fill-opacity="1"><g transform="translate(62.938451, 352.296627)"><g><path d="M 6.390625 0 L 5.765625 -2.0625 L 2.609375 -2.0625 L 1.984375 0 L 0 0 L 3.0625 -8.703125 L 5.3125 -8.703125 L 8.375 0 Z M 5.328125 -3.609375 C 4.742188 -5.472656 4.414062 -6.523438 4.34375 -6.765625 C 4.269531 -7.015625 4.21875 -7.210938 4.1875 -7.359375 C 4.0625 -6.847656 3.691406 -5.597656 3.078125 -3.609375 Z M 5.328125 -3.609375 "/></g></g></g><g fill="#ffffff" fill-opacity="1"><g transform="translate(81.019783, 352.296627)"><g><path d="M 6.203125 -2.40625 C 6.203125 -1.625 5.921875 -1.003906 5.359375 -0.546875 C 4.796875 -0.0976562 4.015625 0.125 3.015625 0.125 C 2.085938 0.125 1.269531 -0.0507812 0.5625 -0.40625 L 0.5625 -2.109375 C 1.144531 -1.847656 1.640625 -1.664062 2.046875 -1.5625 C 2.453125 -1.457031 2.820312 -1.40625 3.15625 -1.40625 C 3.5625 -1.40625 3.867188 -1.476562 4.078125 -1.625 C 4.296875 -1.78125 4.40625 -2.007812 4.40625 -2.3125 C 4.40625 -2.488281 4.359375 -2.640625 4.265625 -2.765625 C 4.171875 -2.898438 4.03125 -3.03125 3.84375 -3.15625 C 3.65625 -3.28125 3.28125 -3.472656 2.71875 -3.734375 C 2.1875 -3.984375 1.785156 -4.222656 1.515625 -4.453125 C 1.253906 -4.679688 1.046875 -4.945312 0.890625 -5.25 C 0.734375 -5.5625 0.65625 -5.921875 0.65625 -6.328125 C 0.65625 -7.085938 0.914062 -7.6875 1.4375 -8.125 C 1.957031 -8.570312 2.675781 -8.796875 3.59375 -8.796875 C 4.039062 -8.796875 4.46875 -8.738281 4.875 -8.625 C 5.289062 -8.519531 5.722656 -8.375 6.171875 -8.1875 L 5.578125 -6.75 C 5.109375 -6.9375 4.722656 -7.066406 4.421875 -7.140625 C 4.117188 -7.222656 3.820312 -7.265625 3.53125 -7.265625 C 3.1875 -7.265625 2.921875 -7.179688 2.734375 -7.015625 C 2.546875 -6.859375 2.453125 -6.648438 2.453125 -6.390625 C 2.453125 -6.222656 2.488281 -6.078125 2.5625 -5.953125 C 2.632812 -5.835938 2.753906 -5.722656 2.921875 -5.609375 C 3.085938 -5.492188 3.476562 -5.289062 4.09375 -5 C 4.90625 -4.613281 5.457031 -4.222656 5.75 -3.828125 C 6.050781 -3.441406 6.203125 -2.96875 6.203125 -2.40625 Z M 6.203125 -2.40625 "/></g></g></g><g fill="#ffffff" fill-opacity="1"><g transform="translate(97.413248, 352.296627)"><g><path d="M 4.4375 0 L 2.59375 0 L 2.59375 -7.140625 L 0.25 -7.140625 L 0.25 -8.671875 L 6.78125 -8.671875 L 6.78125 -7.140625 L 4.4375 -7.140625 Z M 4.4375 0 "/></g></g></g><g fill="#ffffff" fill-opacity="1"><g transform="translate(114.150208, 352.296627)"><g><path d="M 0.6875 -0.84375 C 0.6875 -1.175781 0.773438 -1.425781 0.953125 -1.59375 C 1.140625 -1.769531 1.398438 -1.859375 1.734375 -1.859375 C 2.066406 -1.859375 2.320312 -1.769531 2.5 -1.59375 C 2.675781 -1.414062 2.765625 -1.164062 2.765625 -0.84375 C 2.765625 -0.53125 2.671875 -0.285156 2.484375 -0.109375 C 2.304688 0.0664062 2.054688 0.15625 1.734375 0.15625 C 1.398438 0.15625 1.140625 0.0664062 0.953125 -0.109375 C 0.773438 -0.285156 0.6875 -0.53125 0.6875 -0.84375 Z M 0.6875 -0.84375 "/></g></g></g><g fill="#ffffff" fill-opacity="1"><g transform="translate(127.321934, 352.296627)"><g><path d="M 6.203125 -2.40625 C 6.203125 -1.625 5.921875 -1.003906 5.359375 -0.546875 C 4.796875 -0.0976562 4.015625 0.125 3.015625 0.125 C 2.085938 0.125 1.269531 -0.0507812 0.5625 -0.40625 L 0.5625 -2.109375 C 1.144531 -1.847656 1.640625 -1.664062 2.046875 -1.5625 C 2.453125 -1.457031 2.820312 -1.40625 3.15625 -1.40625 C 3.5625 -1.40625 3.867188 -1.476562 4.078125 -1.625 C 4.296875 -1.78125 4.40625 -2.007812 4.40625 -2.3125 C 4.40625 -2.488281 4.359375 -2.640625 4.265625 -2.765625 C 4.171875 -2.898438 4.03125 -3.03125 3.84375 -3.15625 C 3.65625 -3.28125 3.28125 -3.472656 2.71875 -3.734375 C 2.1875 -3.984375 1.785156 -4.222656 1.515625 -4.453125 C 1.253906 -4.679688 1.046875 -4.945312 0.890625 -5.25 C 0.734375 -5.5625 0.65625 -5.921875 0.65625 -6.328125 C 0.65625 -7.085938 0.914062 -7.6875 1.4375 -8.125 C 1.957031 -8.570312 2.675781 -8.796875 3.59375 -8.796875 C 4.039062 -8.796875 4.46875 -8.738281 4.875 -8.625 C 5.289062 -8.519531 5.722656 -8.375 6.171875 -8.1875 L 5.578125 -6.75 C 5.109375 -6.9375 4.722656 -7.066406 4.421875 -7.140625 C 4.117188 -7.222656 3.820312 -7.265625 3.53125 -7.265625 C 3.1875 -7.265625 2.921875 -7.179688 2.734375 -7.015625 C 2.546875 -6.859375 2.453125 -6.648438 2.453125 -6.390625 C 2.453125 -6.222656 2.488281 -6.078125 2.5625 -5.953125 C 2.632812 -5.835938 2.753906 -5.722656 2.921875 -5.609375 C 3.085938 -5.492188 3.476562 -5.289062 4.09375 -5 C 4.90625 -4.613281 5.457031 -4.222656 5.75 -3.828125 C 6.050781 -3.441406 6.203125 -2.96875 6.203125 -2.40625 Z M 6.203125 -2.40625 "/></g></g></g><g fill="#ffffff" fill-opacity="1"><g transform="translate(143.7154, 352.296627)"><g><path d="M 6.390625 0 L 5.765625 -2.0625 L 2.609375 -2.0625 L 1.984375 0 L 0 0 L 3.0625 -8.703125 L 5.3125 -8.703125 L 8.375 0 Z M 5.328125 -3.609375 C 4.742188 -5.472656 4.414062 -6.523438 4.34375 -6.765625 C 4.269531 -7.015625 4.21875 -7.210938 4.1875 -7.359375 C 4.0625 -6.847656 3.691406 -5.597656 3.078125 -3.609375 Z M 5.328125 -3.609375 "/></g></g></g><g fill="#ffffff" fill-opacity="1"><g transform="translate(161.796732, 352.296627)"><g><path d="M 2.90625 0 L 1.09375 0 L 1.09375 -8.671875 L 6.0625 -8.671875 L 6.0625 -7.15625 L 2.90625 -7.15625 L 2.90625 -4.921875 L 5.84375 -4.921875 L 5.84375 -3.421875 L 2.90625 -3.421875 Z M 2.90625 0 "/></g></g></g><g fill="#ffffff" fill-opacity="1"><g transform="translate(178.166508, 352.296627)"><g><path d="M 6.078125 0 L 1.09375 0 L 1.09375 -8.671875 L 6.078125 -8.671875 L 6.078125 -7.15625 L 2.921875 -7.15625 L 2.921875 -5.265625 L 5.859375 -5.265625 L 5.859375 -3.75 L 2.921875 -3.75 L 2.921875 -1.515625 L 6.078125 -1.515625 Z M 6.078125 0 "/></g></g></g><g fill="#ffffff" fill-opacity="1"><g transform="translate(194.672504, 352.296627)"><g><path d="M 0.6875 -0.84375 C 0.6875 -1.175781 0.773438 -1.425781 0.953125 -1.59375 C 1.140625 -1.769531 1.398438 -1.859375 1.734375 -1.859375 C 2.066406 -1.859375 2.320312 -1.769531 2.5 -1.59375 C 2.675781 -1.414062 2.765625 -1.164062 2.765625 -0.84375 C 2.765625 -0.53125 2.671875 -0.285156 2.484375 -0.109375 C 2.304688 0.0664062 2.054688 0.15625 1.734375 0.15625 C 1.398438 0.15625 1.140625 0.0664062 0.953125 -0.109375 C 0.773438 -0.285156 0.6875 -0.53125 0.6875 -0.84375 Z M 0.6875 -0.84375 "/></g></g></g><g fill="#ffffff" fill-opacity="1"><g transform="translate(207.84423, 352.296627)"><g><path d="M 2.921875 -4.8125 L 3.515625 -4.8125 C 4.097656 -4.8125 4.523438 -4.910156 4.796875 -5.109375 C 5.078125 -5.304688 5.21875 -5.609375 5.21875 -6.015625 C 5.21875 -6.429688 5.078125 -6.722656 4.796875 -6.890625 C 4.515625 -7.066406 4.078125 -7.15625 3.484375 -7.15625 L 2.921875 -7.15625 Z M 2.921875 -3.328125 L 2.921875 0 L 1.09375 0 L 1.09375 -8.671875 L 3.609375 -8.671875 C 4.785156 -8.671875 5.65625 -8.453125 6.21875 -8.015625 C 6.789062 -7.585938 7.078125 -6.941406 7.078125 -6.078125 C 7.078125 -5.566406 6.9375 -5.109375 6.65625 -4.703125 C 6.375 -4.304688 5.976562 -4 5.46875 -3.78125 C 6.769531 -1.832031 7.617188 -0.570312 8.015625 0 L 5.96875 0 L 3.90625 -3.328125 Z M 2.921875 -3.328125 "/></g></g></g><g fill="#ffffff" fill-opacity="1"><g transform="translate(225.564295, 352.296627)"><g><path d="M 6.078125 0 L 1.09375 0 L 1.09375 -8.671875 L 6.078125 -8.671875 L 6.078125 -7.15625 L 2.921875 -7.15625 L 2.921875 -5.265625 L 5.859375 -5.265625 L 5.859375 -3.75 L 2.921875 -3.75 L 2.921875 -1.515625 L 6.078125 -1.515625 Z M 6.078125 0 "/></g></g></g><g fill="#ffffff" fill-opacity="1"><g transform="translate(242.070279, 352.296627)"><g><path d="M 1.09375 0 L 1.09375 -8.671875 L 2.921875 -8.671875 L 2.921875 -1.515625 L 6.4375 -1.515625 L 6.4375 0 Z M 1.09375 0 "/></g></g></g><g fill="#ffffff" fill-opacity="1"><g transform="translate(258.635509, 352.296627)"><g><path d="M 1.09375 0 L 1.09375 -8.671875 L 2.921875 -8.671875 L 2.921875 0 Z M 1.09375 0 "/></g></g></g><g fill="#ffffff" fill-opacity="1"><g transform="translate(272.363932, 352.296627)"><g><path d="M 6.390625 0 L 5.765625 -2.0625 L 2.609375 -2.0625 L 1.984375 0 L 0 0 L 3.0625 -8.703125 L 5.3125 -8.703125 L 8.375 0 Z M 5.328125 -3.609375 C 4.742188 -5.472656 4.414062 -6.523438 4.34375 -6.765625 C 4.269531 -7.015625 4.21875 -7.210938 4.1875 -7.359375 C 4.0625 -6.847656 3.691406 -5.597656 3.078125 -3.609375 Z M 5.328125 -3.609375 "/></g></g></g><g fill="#ffffff" fill-opacity="1"><g transform="translate(290.445275, 352.296627)"><g><path d="M 1.09375 -8.671875 L 3.78125 -8.671875 C 5.007812 -8.671875 5.898438 -8.492188 6.453125 -8.140625 C 7.015625 -7.796875 7.296875 -7.238281 7.296875 -6.46875 C 7.296875 -5.957031 7.171875 -5.535156 6.921875 -5.203125 C 6.679688 -4.867188 6.363281 -4.664062 5.96875 -4.59375 L 5.96875 -4.546875 C 6.507812 -4.421875 6.898438 -4.1875 7.140625 -3.84375 C 7.390625 -3.507812 7.515625 -3.066406 7.515625 -2.515625 C 7.515625 -1.722656 7.226562 -1.101562 6.65625 -0.65625 C 6.082031 -0.21875 5.304688 0 4.328125 0 L 1.09375 0 Z M 2.921875 -5.234375 L 4 -5.234375 C 4.5 -5.234375 4.859375 -5.3125 5.078125 -5.46875 C 5.296875 -5.625 5.40625 -5.878906 5.40625 -6.234375 C 5.40625 -6.566406 5.285156 -6.800781 5.046875 -6.9375 C 4.804688 -7.082031 4.421875 -7.15625 3.890625 -7.15625 L 2.921875 -7.15625 Z M 2.921875 -3.78125 L 2.921875 -1.515625 L 4.125 -1.515625 C 4.632812 -1.515625 5.007812 -1.609375 5.25 -1.796875 C 5.488281 -1.992188 5.609375 -2.296875 5.609375 -2.703125 C 5.609375 -3.421875 5.09375 -3.78125 4.0625 -3.78125 Z M 2.921875 -3.78125 "/></g></g></g><g fill="#ffffff" fill-opacity="1"><g transform="translate(308.307464, 352.296627)"><g><path d="M 1.09375 0 L 1.09375 -8.671875 L 2.921875 -8.671875 L 2.921875 -1.515625 L 6.4375 -1.515625 L 6.4375 0 Z M 1.09375 0 "/></g></g></g><g fill="#ffffff" fill-opacity="1"><g transform="translate(324.872672, 352.296627)"><g><path d="M 6.078125 0 L 1.09375 0 L 1.09375 -8.671875 L 6.078125 -8.671875 L 6.078125 -7.15625 L 2.921875 -7.15625 L 2.921875 -5.265625 L 5.859375 -5.265625 L 5.859375 -3.75 L 2.921875 -3.75 L 2.921875 -1.515625 L 6.078125 -1.515625 Z M 6.078125 0 "/></g></g></g></svg>